<?xml version="1.0" encoding="UTF-8"?>
<svg version="1.1" xmlns="http://www.w3.org/2000/svg" xmlns:xlink="http://www.w3.org/1999/xlink" viewBox="20, 20, 60, 60">
  <g id="Logo">
    <path id="border" d="M77.098,50 C77.098,64.965 64.965,77.098 50,77.098 C35.035,77.098 22.903,64.965 22.903,50 C22.903,35.035 35.035,22.903 50,22.903 C64.965,22.903 77.098,35.035 77.098,50 z" fill="#FFFFFF" />
    <path id="red_area" d="M39.518,46.346 C39.194,46.999 38.463,47.343 37.753,47.177 C37.043,47.01 36.542,46.377 36.542,45.648 C36.542,44.919 37.043,44.286 37.753,44.119 C38.463,43.953 39.194,44.297 39.518,44.95 L62.851,44.95 C65.255,44.95 67.202,46.899 67.202,49.302 C67.202,60.075 61.549,70.058 52.309,75.598 C64.755,74.475 74.59,64.563 75.616,52.109 C76.641,39.655 68.56,28.268 56.465,25.124 C44.371,21.981 31.767,27.993 26.6,39.37 C21.432,50.748 25.196,64.194 35.52,71.234 C46.258,71.685 55.744,64.295 57.936,53.772 C57.91,53.698 57.84,53.65 57.761,53.654 L49.576,53.654 C49.253,54.307 48.521,54.651 47.812,54.485 C47.102,54.318 46.6,53.685 46.6,52.956 C46.6,52.227 47.102,51.594 47.812,51.427 C48.521,51.261 49.253,51.605 49.576,52.258 L58.901,52.258 C59.285,52.258 59.598,52.57 59.598,52.956 C57.875,63.83 48.792,72.024 37.798,72.62 C39.084,73.315 40.429,73.898 41.816,74.364 C53.319,71.883 61.653,61.881 62.015,50.118 C61.991,50.044 61.92,49.996 61.841,50 L44.548,50 C44.223,50.653 43.493,50.997 42.783,50.831 C42.073,50.664 41.57,50.031 41.57,49.302 C41.57,48.573 42.073,47.94 42.783,47.773 C43.493,47.607 44.223,47.951 44.548,48.604 L62.851,48.604 C63.236,48.604 63.549,48.917 63.549,49.302 C63.549,61.15 55.826,71.614 44.506,75.107 C46.048,75.445 47.618,75.64 49.197,75.689 C59.348,70.821 65.808,60.561 65.808,49.302 C65.808,47.669 64.483,46.346 62.851,46.346 z" fill="#CD0000" stroke-linecap="round" stroke-linejoin="round" />
    <path id="trace1" d="M39.518,46.347 C39.194,47 38.463,47.343 37.753,47.177 C37.044,47.01 36.542,46.377 36.542,45.648 C36.542,44.919 37.044,44.286 37.753,44.119 C38.463,43.953 39.194,44.297 39.518,44.951 L62.851,44.951 C65.255,44.951 67.202,46.899 67.202,49.302 C67.202,60.076 61.549,70.059 52.309,75.598 C51.275,75.691 50.235,75.721 49.197,75.689 C59.349,70.821 65.808,60.561 65.808,49.302 C65.808,47.669 64.484,46.347 62.851,46.347 z" fill="#FFFFFF" stroke-linecap="round" stroke-linejoin="round" />
    <path id="trace2" d="M44.548,50 C44.224,50.653 43.493,50.997 42.783,50.831 C42.073,50.664 41.571,50.031 41.571,49.302 C41.571,48.573 42.073,47.94 42.783,47.773 C43.493,47.607 44.224,47.951 44.548,48.604 L62.851,48.604 C63.237,48.604 63.549,48.917 63.549,49.302 C63.549,61.15 55.827,71.614 44.506,75.107 C43.596,74.909 42.698,74.66 41.816,74.364 C53.32,71.883 61.653,61.881 62.016,50.118 C61.991,50.044 61.92,49.996 61.842,50 z" fill="#FFFFFF" stroke-linecap="round" stroke-linejoin="round" />
    <path id="trace3" d="M49.576,53.654 C49.253,54.307 48.522,54.651 47.812,54.485 C47.102,54.318 46.6,53.685 46.6,52.956 C46.6,52.227 47.102,51.594 47.812,51.427 C48.522,51.261 49.253,51.605 49.576,52.258 L58.901,52.258 C59.286,52.258 59.599,52.57 59.599,52.956 C57.876,63.83 48.792,72.024 37.798,72.62 C37.015,72.198 36.255,71.735 35.52,71.234 C46.259,71.685 55.745,64.295 57.936,53.772 C57.911,53.698 57.84,53.65 57.761,53.654 z" fill="#FFFFFF" stroke-linecap="round" stroke-linejoin="round" />
  </g>
</svg>
